<svg width="92" height="46" viewBox="0 0 92 46" fill="none" xmlns="http://www.w3.org/2000/svg">
<path d="M42.1763 36.3517H44.5722V27.3144H42.1763V36.3517ZM42.1763 25.9051H44.5722V23.7559H42.1763V25.9051Z" fill="#E7EBE9"/>
<path d="M46.1159 39.3109H48.5118V35.3296H48.5471C49.0579 36.1047 49.8859 36.6156 51.1543 36.6156C53.4797 36.6156 55.0652 34.7659 55.0652 31.8415C55.0652 29.0228 53.5325 27.0674 51.1367 27.0674C49.9035 27.0674 49.0579 27.6487 48.4766 28.4414H48.4237V27.314H46.1159V39.3109ZM50.6435 34.6249C49.2165 34.6249 48.4589 33.5503 48.4589 31.9119C48.4589 30.2912 49.0579 29.0052 50.5553 29.0052C52.0351 29.0052 52.6341 30.2031 52.6341 31.9119C52.6341 33.6208 51.859 34.6249 50.6435 34.6249Z" fill="#E7EBE9"/>
<path d="M59.8444 36.6156C62.0993 36.6156 63.6495 35.5233 63.6495 33.7088C63.6495 31.5948 61.976 31.1721 60.461 30.855C59.1749 30.5907 57.977 30.5202 57.977 29.7451C57.977 29.0933 58.5936 28.7409 59.5273 28.7409C60.549 28.7409 61.1656 29.0933 61.2713 30.0622H63.4382C63.262 28.2477 61.9408 27.0674 59.5625 27.0674C57.5014 27.0674 55.8806 28.0011 55.8806 29.9564C55.8806 31.9295 57.4662 32.37 59.0869 32.6871C60.32 32.9337 61.4651 33.0218 61.4651 33.885C61.4651 34.5192 60.8661 34.9244 59.8091 34.9244C58.7345 34.9244 57.9946 34.4664 57.8361 33.4269H55.6164C55.7573 35.3472 57.2195 36.6156 59.8444 36.6156Z" fill="#E7EBE9"/>
<path d="M72.7459 36.3513V27.314H70.35V32.5284C70.35 33.7264 69.663 34.572 68.5355 34.572C67.5138 34.572 67.0381 33.9906 67.0381 32.9336V27.314H64.6599V33.3388C64.6599 35.3118 65.7874 36.5979 67.7957 36.5979C69.0641 36.5979 69.7687 36.1222 70.3853 35.2942H70.4382V36.3513H72.7459Z" fill="#E7EBE9"/>
<path d="M74.2956 36.3513H76.6915V31.1015C76.6915 29.9036 77.3433 29.1285 78.3122 29.1285C79.1931 29.1285 79.704 29.657 79.704 30.6788V36.3513H82.0998V31.1015C82.0998 29.9036 82.7164 29.1285 83.7205 29.1285C84.6014 29.1285 85.1123 29.657 85.1123 30.6788V36.3513H87.5081V30.2736C87.5081 28.3005 86.4335 27.0674 84.5309 27.0674C83.3858 27.0674 82.4345 27.6663 81.818 28.6528H81.7827C81.3423 27.7016 80.4262 27.0674 79.2811 27.0674C78.0304 27.0674 77.1495 27.7016 76.6562 28.5296H76.6034V27.314H74.2956V36.3513Z" fill="#E7EBE9"/>
<path d="M42.2115 20.8727H44.6074V8.27686H42.2115V20.8727Z" fill="#E7EBE9"/>
<path d="M50.4656 21.1371C53.2667 21.1371 55.1869 19.0583 55.1869 16.363C55.1869 13.6676 53.2667 11.5889 50.4656 11.5889C47.6646 11.5889 45.7443 13.6676 45.7443 16.363C45.7443 19.0583 47.6646 21.1371 50.4656 21.1371ZM50.4656 19.3049C48.9858 19.3049 48.1755 18.1246 48.1755 16.363C48.1755 14.6013 48.9858 13.4034 50.4656 13.4034C51.9278 13.4034 52.7558 14.6013 52.7558 16.363C52.7558 18.1246 51.9278 19.3049 50.4656 19.3049Z" fill="#E7EBE9"/>
<path d="M60.2819 23.9558C61.6208 23.9558 62.7835 23.6387 63.541 22.9339C64.2104 22.3174 64.6156 21.4542 64.6156 20.1858V11.8355H62.3078V12.7868H62.2726C61.7265 12.0293 60.8985 11.5889 59.771 11.5889C57.4809 11.5889 55.8601 13.3153 55.8601 16.0106C55.8601 18.7412 57.8332 20.3267 59.8415 20.3267C60.9866 20.3267 61.6736 19.8687 62.2022 19.2697H62.255V20.2562C62.255 21.4894 61.6032 22.1412 60.2467 22.1412C59.1368 22.1412 58.626 21.7008 58.4322 21.1371H56.0539C56.3006 22.8987 57.8156 23.9558 60.2819 23.9558ZM60.2467 18.4065C59.0135 18.4065 58.2031 17.5081 58.2031 15.9754C58.2031 14.4604 59.0135 13.5091 60.2291 13.5091C61.6736 13.5091 62.3783 14.6365 62.3783 15.9578C62.3783 17.2966 61.7617 18.4065 60.2467 18.4065Z" fill="#E7EBE9"/>
<path d="M70.4391 21.1371C73.2401 21.1371 75.1604 19.0583 75.1604 16.363C75.1604 13.6676 73.2401 11.5889 70.4391 11.5889C67.6381 11.5889 65.7179 13.6676 65.7179 16.363C65.7179 19.0583 67.6381 21.1371 70.4391 21.1371ZM70.4391 19.3049C68.9593 19.3049 68.1489 18.1246 68.1489 16.363C68.1489 14.6013 68.9593 13.4034 70.4391 13.4034C71.9013 13.4034 72.7293 14.6013 72.7293 16.363C72.7293 18.1246 71.9013 19.3049 70.4391 19.3049Z" fill="#E7EBE9"/>
<path d="M77.2607 17.42H87.6191V15.3589H77.2607V17.42Z" fill="#E7EBE9"/>
<path d="M88.3787 25.779C88.3787 25.3736 88.7073 25.0449 89.1129 25.0449H90.5806C90.9862 25.0449 91.3148 25.3736 91.3148 25.779C91.3148 26.1843 90.9862 26.513 90.5806 26.513H89.1129C88.7073 26.513 88.3787 26.1843 88.3787 25.779Z" fill="#E7EBE9"/>
<path fill-rule="evenodd" clip-rule="evenodd" d="M17.9808 5.47607C27.659 5.47607 35.5046 13.3217 35.5046 22.9999C35.5046 32.678 27.659 40.5237 17.9808 40.5237C8.30271 40.5237 0.457031 32.678 0.457031 22.9999C0.457031 13.3217 8.30271 5.47607 17.9808 5.47607ZM17.3474 6.78737C15.3483 7.06872 13.4447 8.67512 11.967 11.3618C11.5384 12.1411 11.1516 13.0021 10.8146 13.9317C12.8238 13.4268 15.0311 13.1291 17.3474 13.083V6.78737ZM9.33354 14.3526C9.75262 13.0372 10.2654 11.8271 10.8571 10.7513C11.5896 9.41945 12.4589 8.26933 13.4384 7.38597C8.11213 8.93285 3.9138 13.1312 2.36693 18.4574C3.25028 17.478 4.40041 16.6086 5.73227 15.8761C6.80801 15.2844 8.01818 14.7717 9.33354 14.3526ZM8.91261 15.8336C8.40773 17.8429 8.11005 20.0501 8.06401 22.3665H1.76832C2.04968 20.3673 3.65608 18.4637 6.34276 16.9861C7.12207 16.5574 7.98304 16.1707 8.91261 15.8336ZM9.33108 22.3665C9.38339 19.8386 9.74727 17.4653 10.3494 15.3684C12.4463 14.7663 14.8196 14.4024 17.3474 14.35V17.0863C16.4044 19.5006 14.481 21.4238 12.0666 22.3665H9.33108ZM8.06401 23.6333H1.76832C2.04968 25.6325 3.65608 27.536 6.34276 29.0137C7.12207 29.4423 7.98304 29.8291 8.91261 30.1662C8.40773 28.1569 8.11005 25.9497 8.06401 23.6333ZM10.3494 30.6313C9.74727 28.5344 9.38339 26.1612 9.33108 23.6333H12.0666C14.481 24.576 16.4045 26.4992 17.3474 28.9135V31.6497C14.8196 31.5974 12.4463 31.2334 10.3494 30.6313ZM9.33354 31.6472C8.01818 31.2281 6.80801 30.7154 5.73227 30.1237C4.40041 29.3912 3.25028 28.5218 2.36693 27.5423C3.9138 32.8686 8.11213 37.0669 13.4384 38.6138C12.4589 37.7304 11.5896 36.5803 10.8571 35.2484C10.2654 34.1727 9.75262 32.9625 9.33354 31.6472ZM17.3474 39.2124C15.3483 38.931 13.4447 37.3246 11.967 34.638C11.5384 33.8587 11.1516 32.9977 10.8146 32.0681C12.8238 32.573 15.0311 32.8707 17.3474 32.9167V39.2124ZM22.5233 38.6138C23.5028 37.7304 24.3721 36.5803 25.1047 35.2484C25.6963 34.1727 26.2091 32.9625 26.6281 31.6472C27.9435 31.2281 29.1537 30.7154 30.2295 30.1237C31.5613 29.3912 32.7114 28.5218 33.5947 27.5423C32.0479 32.8686 27.8495 37.0669 22.5233 38.6138ZM25.1471 32.0681C24.81 32.9977 24.4233 33.8587 23.9947 34.638C22.517 37.3246 20.6134 38.931 18.6142 39.2124V32.9167C20.9306 32.8707 23.1378 32.573 25.1471 32.0681ZM27.0491 30.1662C27.9786 29.8291 28.8396 29.4423 29.6189 29.0137C32.3056 27.536 33.912 25.6325 34.1933 23.6333H27.8976C27.8516 25.9497 27.5539 28.1569 27.0491 30.1662ZM26.6307 23.6333C26.5784 26.1612 26.2144 28.5344 25.6123 30.6313C23.5154 31.2334 21.1421 31.5974 18.6142 31.6497V28.9155C19.5569 26.5004 21.4808 24.5762 23.8958 23.6333H26.6307ZM27.8976 22.3665H34.1933C33.912 20.3673 32.3056 18.4637 29.6189 16.9861C28.8396 16.5574 27.9786 16.1707 27.0491 15.8336C27.5539 17.8429 27.8516 20.0501 27.8976 22.3665ZM25.6123 15.3684C26.2144 17.4653 26.5784 19.8386 26.6307 22.3665H23.8958C21.4808 21.4235 19.5569 19.4994 18.6142 17.0843V14.35C21.1421 14.4024 23.5154 14.7663 25.6123 15.3684ZM26.6281 14.3526C27.9435 14.7717 29.1537 15.2844 30.2295 15.8761C31.5613 16.6086 32.7114 17.478 33.5947 18.4574C32.0479 13.1312 27.8495 8.93285 22.5233 7.38597C23.5028 8.26933 24.3721 9.41945 25.1047 10.7513C25.6963 11.8271 26.2091 13.0372 26.6281 14.3526ZM18.6142 6.78737C20.6134 7.06872 22.517 8.67512 23.9947 11.3618C24.4233 12.1411 24.81 13.0021 25.1471 13.9317C23.1378 13.4268 20.9306 13.1291 18.6142 13.083V6.78737Z" fill="#E7EBE9"/>
</svg>
